<?xml version="1.0" encoding="utf-8"?>
<!-- Generator: Adobe Illustrator 25.0.0, SVG Export Plug-In . SVG Version: 6.00 Build 0)  -->
<svg version="1.1" id="Layer_1" xmlns="http://www.w3.org/2000/svg" xmlns:xlink="http://www.w3.org/1999/xlink" x="0px" y="0px"
	 viewBox="0 0 283.6 270.7" style="enable-background:new 0 0 283.6 270.7;" xml:space="preserve">
<style type="text/css">
	.st0{fill:url(#SVGID_1_);}
	.st1{fill:url(#SVGID_2_);}
</style>
<g>
	
		<linearGradient id="SVGID_1_" gradientUnits="userSpaceOnUse" x1="0" y1="475.3315" x2="283.5213" y2="475.3315" gradientTransform="matrix(1 0 0 1 0 -340)">
		<stop  offset="0" style="stop-color:#6E6BF7"/>
		<stop  offset="1" style="stop-color:#F27AA0"/>
	</linearGradient>
	<path class="st0" d="M3.2,152.5C1.1,145.8,0,138.9,0,131.8c0.6-21,17.3-35.9,35-44.6c15.3-7.5,32-12,47.2-19.7
		c18.9-9.6,26.6-21.6,35-39.9c5.1-11,16.5-18.1,27.4-22.4c32.5-12.5,69.4-2,92.7,23.2c12.8,14,23.5,29.8,31.7,46.9
		c10.2,21,24.7,44.4,4,64c-9,8.6-20.7,14-29.3,23.1c-10.7,11.2-15.1,26.5-17.1,41.5c-2,14.8-0.2,28.1-9.4,40.8
		c-21.6,29.8-70.2,28.2-102.5,23.2c-42.8-6.5-69-28.6-88.9-66.3C18.7,187.8,8.4,169.8,3.2,152.5z"/>
	<g>
		<g>
			<g>
				
					<linearGradient id="SVGID_2_" gradientUnits="userSpaceOnUse" x1="257.1596" y1="-261.3638" x2="244.1808" y2="-242.6168" gradientTransform="matrix(1 0 0 -1 0 -68)">
					<stop  offset="0" style="stop-color:#6E6BF7"/>
					<stop  offset="1" style="stop-color:#F27AA0"/>
				</linearGradient>
				<circle class="st1" cx="250.4" cy="183.6" r="11.6"/>
			</g>
		</g>
	</g>
</g>
</svg>
