<?xml version="1.0" encoding="utf-8"?>
<!-- Generator: Adobe Illustrator 25.0.0, SVG Export Plug-In . SVG Version: 6.00 Build 0)  -->
<svg version="1.1" id="Layer_1" xmlns="http://www.w3.org/2000/svg" xmlns:xlink="http://www.w3.org/1999/xlink" x="0px" y="0px"
	 viewBox="0 0 499.6 560.4" style="enable-background:new 0 0 499.6 560.4;" xml:space="preserve">
<style type="text/css">
	.st0{fill-rule:evenodd;clip-rule:evenodd;fill:url(#SVGID_1_);}
</style>
<linearGradient id="SVGID_1_" gradientUnits="userSpaceOnUse" x1="428.7625" y1="43.9677" x2="93.515" y2="528.3996" gradientTransform="matrix(1 0 0 -1 0 562)">
	<stop  offset="0" style="stop-color:#6E6BF7"/>
	<stop  offset="1" style="stop-color:#F27AA0"/>
</linearGradient>
<path class="st0" d="M212.4,24.8c55.5,36.7,105.9,4.5,163,19c66,16.7,124.6,91.4,124.1,155.2c-0.5,63.1-59.1,68.5-86.5,157.7
	c-18.6,60.5,28.8,142.2-18.5,184.3c-46.2,41.2-120.4,5.9-181-6.4C136,518.8,98.3,505.9,79.3,476.7C41.1,417.6,102,349.9,56.4,278.8
	c-21.6-33.7-40.8-27-51.5-54.8C-27.8,139.9,111.4-18.8,181.4,1.8C194.6,5.7,193.9,12.6,212.4,24.8z"/>
</svg>
