<?xml version="1.0" encoding="utf-8"?>
<!-- Generator: Adobe Illustrator 25.0.0, SVG Export Plug-In . SVG Version: 6.00 Build 0)  -->
<svg version="1.1" id="Layer_1" xmlns="http://www.w3.org/2000/svg" xmlns:xlink="http://www.w3.org/1999/xlink" x="0px" y="0px"
	 viewBox="0 0 1538 464.9" style="enable-background:new 0 0 1538 464.9;" xml:space="preserve">
<style type="text/css">
	.st0{fill:url(#SVGID_1_);}
	.st1{fill:url(#SVGID_2_);}
</style>
<linearGradient id="SVGID_1_" gradientUnits="userSpaceOnUse" x1="-82.5639" y1="470.7108" x2="856.3761" y2="-209.7892" gradientTransform="matrix(1 0 0 -1 373 377.52)">
	<stop  offset="0" style="stop-color:#6E6BF7"/>
	<stop  offset="1" style="stop-color:#F27AA0"/>
</linearGradient>
<path class="st0" d="M647,42.4C259-80.8,54,93.7,0,196.4v268.5h1538V42.4C1402.7,93.7,1035,165.6,647,42.4z"/>
<linearGradient id="SVGID_2_" gradientUnits="userSpaceOnUse" x1="1014.3907" y1="-131.7131" x2="1221.9379" y2="239.4771">
	<stop  offset="0" style="stop-color:#FFFFFF;stop-opacity:5.000000e-02"/>
	<stop  offset="1" style="stop-color:#FFFFFF;stop-opacity:0.2"/>
</linearGradient>
<path class="st1" d="M693.2,56.2c77.2,25.1,154.8,49,232.9,70.9c79.2,22.3,157.5,35.4,239.3,41.6c111.9,8.5,224.6,13.7,336.8,13.7
	c2.4,0,35.8-0.2,35.8-1.1c0,0,0-138.9,0-138.9s-165.5,58.3-308,62.6c0,0-32.8,3.4-87,4.7c-109.2,2.5-192-5.6-216.1-8.3
	C863.4,94.4,783.7,81.3,693.2,56.2z"/>
</svg>
