<?xml version="1.0" encoding="utf-8"?>
<!-- Generator: Adobe Illustrator 25.0.0, SVG Export Plug-In . SVG Version: 6.00 Build 0)  -->
<svg version="1.1" id="Layer_1" xmlns="http://www.w3.org/2000/svg" xmlns:xlink="http://www.w3.org/1999/xlink" x="0px" y="0px"
	 viewBox="0 0 515.5 307" style="enable-background:new 0 0 515.5 307;" xml:space="preserve">
<style type="text/css">
	.st0{fill:url(#SVGID_1_);}
	.st1{fill:url(#SVGID_2_);}
	.st2{fill:url(#SVGID_3_);}
</style>
<linearGradient id="SVGID_1_" gradientUnits="userSpaceOnUse" x1="43.3198" y1="77.2351" x2="499.7598" y2="257.7983" gradientTransform="matrix(1 0 0 -1 0 308)">
	<stop  offset="0" style="stop-color:#6E6BF7"/>
	<stop  offset="1" style="stop-color:#F27AA0"/>
</linearGradient>
<path class="st0" d="M273.3,1.2c-17.5,6.9-33.9,15.9-48.1,27.5c-28.3,23.3-57.6,36-96.6,39.1c-37.9,3-76.8-3.6-110.6-19
	c-5.1-2.3-11.1-6.1-17.6-9.7V244c3.2-0.2,6.3-0.4,9.1-0.5c33.4-0.8,63.3,1.8,94.7,12.7c25,8.7,49.5,19.5,75.7,24.9
	c31.1,6.3,63.9,4.7,95.1-1.1c34.4-6.2,68.4-16.7,100.7-28.6c19.7-7.3,38.3-17.6,60.2-18.4c35.8-1.4,62.2,13,79.9,19.5V1.2H273.3z"/>
<linearGradient id="SVGID_2_" gradientUnits="userSpaceOnUse" x1="224.5596" y1="13.3955" x2="243.2796" y2="46.8755">
	<stop  offset="0" style="stop-color:#FFFFFF;stop-opacity:5.000000e-02"/>
	<stop  offset="1" style="stop-color:#FFFFFF;stop-opacity:0.2"/>
</linearGradient>
<path class="st1" d="M128.6,67.8c7.9,2.4,19.1,4.9,32.6,5.4c31.3,1.1,57.1-13.9,82.5-30.3c29.7-19.2,58.2-28.5,91.8-39
	c2.9-0.9,5.7-1.8,8.6-2.7L276,0c-13.4,6-27.4,12-39.4,20.4c-11.9,8.3-22.3,18.7-35.1,25.6c-12.8,6.8-26.3,13.5-40.5,16.7
	C141.8,67,128.6,67.8,128.6,67.8z"/>
<linearGradient id="SVGID_3_" gradientUnits="userSpaceOnUse" x1="148.4858" y1="297.8827" x2="162.4468" y2="251.8631">
	<stop  offset="0" style="stop-color:#FFFFFF;stop-opacity:5.000000e-02"/>
	<stop  offset="1" style="stop-color:#FFFFFF;stop-opacity:0.2"/>
</linearGradient>
<path class="st2" d="M315.5,270.8c-9.5,1.7-19.1,3.1-28.8,4.4c-9.4,1.2-18.7,2.6-28.2,2.8c-39.3,0.5-78.8-7.4-115-22.4
	c-23.1-9.6-44.9-22.1-68.3-30.9c-24.1-9-49.5-13.9-75.1-16.9c-0.1,12.1,0,24.3,0.3,36.4c0-1.8,39.2-0.4,42.8-0.1
	c15,1.3,29.8,3.9,44.3,7.8c28,7.6,54.4,20.2,82.5,27.4c2.2,0.6,10.6,2.6,22.2,4.1c0,0,22.7,1.9,22.7,1.9s43.1,0.7,81-9.5
	c13.5-3.6,26.3-6.5,37.9-10.2"/>
</svg>
